<?xml version="1.0" standalone="no"?>
<!DOCTYPE svg PUBLIC "-//W3C//DTD SVG 20010904//EN"
 "http://www.w3.org/TR/2001/REC-SVG-20010904/DTD/svg10.dtd">
<svg version="1.0" xmlns="http://www.w3.org/2000/svg"
 width="450.000000pt" height="450.000000pt" viewBox="0 0 450.000000 450.000000"
 preserveAspectRatio="xMidYMid meet">

<g transform="translate(0.000000,450.000000) scale(0.100000,-0.100000)"
fill="#000000" stroke="none">
<path d="M1623 3235 c-201 -54 -356 -226 -415 -458 -27 -107 -22 -286 12 -392
71 -224 165 -343 688 -878 229 -235 259 -257 347 -257 85 0 116 23 336 246
552 560 652 694 706 949 21 100 13 297 -17 385 -36 107 -90 198 -154 264 -163
164 -387 202 -595 99 -77 -37 -196 -159 -241 -245 l-35 -67 -35 67 c-44 85
-163 206 -241 245 -113 56 -244 72 -356 42z m264 -107 c64 -24 138 -78 188
-138 43 -51 99 -159 110 -210 12 -58 31 -80 69 -80 41 0 47 7 75 95 77 241
285 389 499 354 346 -55 499 -508 301 -889 -66 -127 -225 -310 -606 -697 -222
-226 -232 -233 -306 -212 -28 8 -88 64 -280 262 -460 474 -542 577 -608 757
-85 235 -38 491 122 651 61 61 155 113 229 128 58 12 142 3 207 -21z"/>
<path d="M1719 2956 c-68 -27 -106 -54 -148 -101 -91 -104 -120 -249 -85 -423
21 -105 52 -167 83 -167 42 0 47 25 21 106 -35 109 -39 254 -10 334 36 95 110
158 227 191 24 6 33 40 17 62 -19 28 -35 27 -105 -2z"/>
</g>
</svg>
